<svg width="580" height="380" viewBox="0 0 580 380" fill="none" xmlns="http://www.w3.org/2000/svg">
<path d="M96 7.69924C96 3.44707 99.4471 0 103.699 0H546.301C550.553 0 554 3.44707 554 7.69924V338.301C554 342.553 550.553 346 546.301 346H103.699C99.4471 346 96 342.553 96 338.301V7.69924Z" fill="#292841"/>
<path d="M290 252C290 247.582 293.582 244 298 244H510C514.418 244 518 247.582 518 252V346H290V252Z" fill="#1C1B29"/>
<rect x="306" y="259" width="77" height="9" rx="4.5" fill="#32313E"/>
<rect x="306" y="275" width="127" height="9" rx="4.5" fill="#32313E"/>
<rect x="306" y="291" width="45" height="9" rx="4.5" fill="#32313E"/>
<rect x="306" y="307" width="186" height="9" rx="4.5" fill="#32313E"/>
<rect x="306" y="323" width="99" height="9" rx="4.5" fill="#32313E"/>
<path d="M322.887 50.772C322.887 47.118 320.655 44.58 316.335 44.58H312.393V57H316.335C320.565 57 322.887 54.462 322.887 50.772ZM320.457 50.79C320.457 53.706 318.891 55.038 316.281 55.038H314.769V46.542H316.317C318.801 46.542 320.457 47.928 320.457 50.79ZM327.317 45.624C327.317 44.886 326.741 44.364 326.039 44.364C325.319 44.364 324.743 44.886 324.743 45.624C324.743 46.344 325.319 46.848 326.039 46.848C326.741 46.848 327.317 46.344 327.317 45.624ZM327.101 57V48.306H324.941V57H327.101ZM335.83 54.444C335.83 52.806 334.948 52.194 332.698 51.618C331.402 51.276 331.078 51.006 331.078 50.538C331.078 50.07 331.474 49.746 332.284 49.746C333.148 49.746 334.174 50.052 335.038 50.538L335.326 48.738C334.462 48.36 333.418 48.126 332.284 48.126C330.268 48.126 329.08 49.188 329.08 50.7C329.08 52.284 329.962 52.896 332.068 53.436C333.454 53.778 333.832 54.03 333.832 54.642C333.832 55.218 333.328 55.56 332.392 55.56C331.312 55.56 330.16 55.146 329.224 54.534L328.936 56.334C329.764 56.784 331.06 57.18 332.32 57.18C334.606 57.18 335.83 56.154 335.83 54.444ZM344.094 56.334L343.806 54.48C343.014 55.092 342.276 55.308 341.52 55.308C340.26 55.308 339.27 54.444 339.27 52.644C339.27 50.916 340.17 49.998 341.448 49.998C342.312 49.998 342.996 50.286 343.698 50.808L344.004 48.864C343.374 48.468 342.474 48.126 341.34 48.126C338.982 48.126 337.092 49.674 337.092 52.698C337.092 55.542 338.802 57.162 341.214 57.162C342.366 57.162 343.266 56.892 344.094 56.334ZM353.403 52.644C353.403 49.818 351.675 48.126 349.299 48.126C346.941 48.126 345.213 49.836 345.213 52.662C345.213 55.488 346.923 57.18 349.281 57.18C351.657 57.18 353.403 55.47 353.403 52.644ZM351.297 52.662C351.297 54.282 350.613 55.416 349.281 55.416C348.021 55.416 347.319 54.246 347.319 52.644C347.319 51.042 348.003 49.89 349.281 49.89C350.577 49.89 351.297 51.06 351.297 52.662ZM360.394 50.268L360.052 48.126C358.702 48.198 357.838 49.044 357.262 50.052L356.992 48.306H355.156V57H357.316V52.014C357.946 51.078 359.044 50.358 360.394 50.268ZM363.282 52.77C363.282 50.862 364.092 49.944 365.226 49.944C365.964 49.944 366.378 50.07 366.918 50.322V54.048C366.342 54.786 365.73 55.254 364.938 55.254C363.984 55.254 363.282 54.462 363.282 52.77ZM361.104 52.896C361.104 55.83 362.562 57.18 364.38 57.18C365.586 57.18 366.432 56.532 367.044 55.794L367.224 57H369.078V44.004L366.918 44.346V48.54C366.396 48.36 365.73 48.216 364.902 48.216C362.886 48.216 361.104 49.656 361.104 52.896ZM375.34 57H377.716V52.428H378.778C381.622 52.428 383.53 51.078 383.53 48.396C383.53 45.894 381.82 44.58 378.976 44.58H375.34V57ZM381.19 48.45C381.19 49.872 380.29 50.502 378.76 50.502H377.716V46.488H378.85C380.38 46.488 381.19 47.154 381.19 48.45ZM389.492 54.606C388.898 55.182 388.196 55.542 387.458 55.542C386.792 55.542 386.396 55.164 386.396 54.534C386.396 53.706 386.99 52.968 389.492 52.662V54.606ZM391.652 57V51.042C391.652 48.954 390.536 48.126 388.286 48.126C386.9 48.126 385.838 48.432 384.83 48.828L385.1 50.556C386.036 50.142 386.99 49.854 387.998 49.854C388.952 49.854 389.492 50.214 389.492 51.15V51.402C385.982 51.744 384.254 52.662 384.254 54.768C384.254 56.28 385.244 57.18 386.72 57.18C388.016 57.18 388.916 56.604 389.618 55.866L389.798 57H391.652ZM399.03 50.268L398.688 48.126C397.338 48.198 396.474 49.044 395.898 50.052L395.628 48.306H393.792V57H395.952V52.014C396.582 51.078 397.68 50.358 399.03 50.268ZM405.24 57L404.97 55.182C404.772 55.236 404.538 55.254 404.286 55.254C403.458 55.254 403.152 54.876 403.152 54.174V50.07H405.186L404.916 48.306H403.152V45.228L401.01 45.552V48.306H399.786V50.07H401.01V54.534C401.01 56.514 402.162 57.144 403.872 57.144C404.502 57.144 404.898 57.072 405.24 57ZM414.269 57V50.736C414.269 49.116 413.405 48.126 411.785 48.126C410.615 48.126 409.697 48.756 408.887 49.53L408.689 48.306H406.853V57H409.013V51.132C409.643 50.466 410.327 50.034 410.993 50.034C411.785 50.034 412.109 50.556 412.109 51.312V57H414.269ZM419.889 49.62C420.933 49.62 421.473 50.376 421.617 51.726H418.143C418.305 50.322 419.025 49.62 419.889 49.62ZM423.705 56.118L423.453 54.426C422.499 55.092 421.581 55.506 420.465 55.506C419.133 55.506 418.215 54.768 418.125 53.076H423.705C423.705 52.95 423.723 52.734 423.723 52.554C423.723 50.088 422.553 48.126 419.943 48.126C417.675 48.126 415.983 49.836 415.983 52.662C415.983 55.794 417.801 57.18 420.231 57.18C421.635 57.18 422.769 56.766 423.705 56.118ZM430.706 50.268L430.364 48.126C429.014 48.198 428.15 49.044 427.574 50.052L427.304 48.306H425.468V57H427.628V52.014C428.258 51.078 429.356 50.358 430.706 50.268ZM436.143 57H438.519V52.428H439.581C442.425 52.428 444.333 51.078 444.333 48.396C444.333 45.894 442.623 44.58 439.779 44.58H436.143V57ZM441.993 48.45C441.993 49.872 441.093 50.502 439.563 50.502H438.519V46.488H439.653C441.183 46.488 441.993 47.154 441.993 48.45ZM451.062 50.268L450.72 48.126C449.37 48.198 448.506 49.044 447.93 50.052L447.66 48.306H445.824V57H447.984V52.014C448.614 51.078 449.712 50.358 451.062 50.268ZM459.944 52.644C459.944 49.818 458.216 48.126 455.84 48.126C453.482 48.126 451.754 49.836 451.754 52.662C451.754 55.488 453.464 57.18 455.822 57.18C458.198 57.18 459.944 55.47 459.944 52.644ZM457.838 52.662C457.838 54.282 457.154 55.416 455.822 55.416C454.562 55.416 453.86 54.246 453.86 52.644C453.86 51.042 454.544 49.89 455.822 49.89C457.118 49.89 457.838 51.06 457.838 52.662ZM466.413 51.132C466.413 52.086 465.837 52.788 464.883 52.788C463.947 52.788 463.371 52.104 463.371 51.204C463.371 50.25 463.929 49.512 464.883 49.512C465.801 49.512 466.413 50.214 466.413 51.132ZM469.491 57.36C469.491 56.028 468.375 55.47 466.593 55.218L465.477 55.11C464.127 54.912 463.857 54.84 463.857 54.552C463.857 54.408 464.001 54.246 464.217 54.084C464.433 54.12 464.667 54.138 464.919 54.138C466.791 54.138 468.393 53.022 468.393 51.15C468.393 50.754 468.321 50.358 468.159 50.016L469.743 49.908L469.455 48.18L467.331 48.936C466.701 48.414 465.873 48.126 464.865 48.126C462.921 48.126 461.373 49.296 461.373 51.204C461.373 52.356 461.985 53.256 463.011 53.742C462.291 54.174 461.913 54.642 461.913 55.128C461.913 55.47 462.075 55.794 462.417 56.064C461.337 56.676 460.779 57.306 460.779 58.116C460.779 59.556 462.561 60.276 464.919 60.276C467.439 60.276 469.491 59.232 469.491 57.36ZM465.063 58.998C463.425 58.998 462.651 58.53 462.651 57.882C462.651 57.432 462.939 57.018 463.569 56.568C464.001 56.658 464.271 56.712 464.865 56.784L466.035 56.928C467.115 57.09 467.493 57.36 467.493 57.828C467.493 58.476 466.611 58.998 465.063 58.998ZM476.269 50.268L475.927 48.126C474.577 48.198 473.713 49.044 473.137 50.052L472.867 48.306H471.031V57H473.191V52.014C473.821 51.078 474.919 50.358 476.269 50.268ZM482.076 54.606C481.482 55.182 480.78 55.542 480.042 55.542C479.376 55.542 478.98 55.164 478.98 54.534C478.98 53.706 479.574 52.968 482.076 52.662V54.606ZM484.236 57V51.042C484.236 48.954 483.12 48.126 480.87 48.126C479.484 48.126 478.422 48.432 477.414 48.828L477.684 50.556C478.62 50.142 479.574 49.854 480.582 49.854C481.536 49.854 482.076 50.214 482.076 51.15V51.402C478.566 51.744 476.838 52.662 476.838 54.768C476.838 56.28 477.828 57.18 479.304 57.18C480.6 57.18 481.5 56.604 482.202 55.866L482.382 57H484.236ZM498.85 57V50.736C498.85 49.116 498.04 48.126 496.402 48.126C495.232 48.126 494.278 48.756 493.504 49.53C493.18 48.684 492.514 48.126 491.272 48.126C490.102 48.126 489.22 48.756 488.41 49.53L488.212 48.306H486.376V57H488.536V51.114C489.166 50.466 489.796 50.034 490.462 50.034C491.254 50.034 491.542 50.556 491.542 51.312V57H493.702V51.114C494.332 50.466 494.962 50.034 495.628 50.034C496.42 50.034 496.69 50.556 496.69 51.312V57H498.85Z" fill="white"/>
<path d="M96 7.69924C96 3.44707 99.4471 0 103.699 0H256V346H103.699C99.4471 346 96 342.553 96 338.301V7.69924Z" fill="#1C1B29"/>
<rect x="116.652" y="231.598" width="55.5569" height="9.07052" rx="4.53526" fill="#32313E"/>
<rect x="116.652" y="247.472" width="37.4159" height="9.07052" rx="4.53526" fill="#32313E"/>
<rect x="116.652" y="263.345" width="73.6979" height="9.07052" rx="4.53526" fill="#32313E"/>
<rect x="116.652" y="279.219" width="64.6274" height="9.07052" rx="4.53526" fill="#32313E"/>
<rect x="53.3735" y="64.5439" width="167.054" height="148.071" rx="6" fill="#292841"/>
<path d="M80.9122 95.1359L80.6844 93.6678C80.0137 94.1108 79.2923 94.4272 78.4697 94.4272C76.9004 94.4272 75.9132 93.2629 75.9132 91.3645C75.9132 89.4788 76.8624 88.2892 78.4444 88.2892C79.2923 88.2892 79.963 88.6309 80.5325 89.0612L80.773 87.4792C80.1276 87.0743 79.3682 86.8465 78.3811 86.8465C75.8373 86.8465 74.2047 88.6689 74.2047 91.3772C74.2047 94.0981 75.7993 95.8826 78.3305 95.8826C79.3302 95.8826 80.2288 95.5788 80.9122 95.1359ZM87.5361 92.6681C87.5361 90.6811 86.3212 89.4915 84.6507 89.4915C82.9928 89.4915 81.7778 90.6938 81.7778 92.6807C81.7778 94.6676 82.9801 95.8573 84.638 95.8573C86.3085 95.8573 87.5361 94.655 87.5361 92.6681ZM86.0554 92.6807C86.0554 93.8197 85.5745 94.617 84.638 94.617C83.7521 94.617 83.2585 93.7944 83.2585 92.6681C83.2585 91.5417 83.7394 90.7317 84.638 90.7317C85.5492 90.7317 86.0554 91.5544 86.0554 92.6807ZM97.5384 95.7307V91.3266C97.5384 90.1875 96.9689 89.4915 95.8173 89.4915C94.9947 89.4915 94.3239 89.9344 93.7797 90.4786C93.5519 89.8838 93.0837 89.4915 92.2104 89.4915C91.3878 89.4915 90.7677 89.9344 90.1982 90.4786L90.059 89.618H88.7681V95.7307H90.2868V91.5923C90.7297 91.1367 91.1727 90.833 91.6409 90.833C92.1978 90.833 92.4002 91.2 92.4002 91.7315V95.7307H93.9189V91.5923C94.3619 91.1367 94.8048 90.833 95.2731 90.833C95.8299 90.833 96.0198 91.2 96.0198 91.7315V95.7307H97.5384ZM107.833 95.7307V91.3266C107.833 90.1875 107.264 89.4915 106.112 89.4915C105.29 89.4915 104.619 89.9344 104.075 90.4786C103.847 89.8838 103.379 89.4915 102.505 89.4915C101.683 89.4915 101.063 89.9344 100.493 90.4786L100.354 89.618H99.0631V95.7307H100.582V91.5923C101.025 91.1367 101.468 90.833 101.936 90.833C102.493 90.833 102.695 91.2 102.695 91.7315V95.7307H104.214V91.5923C104.657 91.1367 105.1 90.833 105.568 90.833C106.125 90.833 106.315 91.2 106.315 91.7315V95.7307H107.833ZM109.333 89.618V94.0095C109.333 95.1612 109.928 95.8573 111.079 95.8573C111.889 95.8573 112.547 95.4143 113.117 94.8701L113.256 95.7307H114.547V89.618H113.028V93.7438C112.585 94.1994 112.104 94.5031 111.636 94.5031C111.079 94.5031 110.852 94.1488 110.852 93.6172V89.618H109.333ZM121.308 95.7307V91.3266C121.308 90.1875 120.701 89.4915 119.562 89.4915C118.739 89.4915 118.093 89.9344 117.524 90.4786L117.385 89.618H116.094V95.7307H117.613V91.605C118.055 91.1367 118.536 90.833 119.005 90.833C119.562 90.833 119.789 91.2 119.789 91.7315V95.7307H121.308ZM124.563 87.7324C124.563 87.2135 124.158 86.8465 123.665 86.8465C123.159 86.8465 122.754 87.2135 122.754 87.7324C122.754 88.2386 123.159 88.5929 123.665 88.5929C124.158 88.5929 124.563 88.2386 124.563 87.7324ZM124.411 95.7307V89.618H122.893V95.7307H124.411ZM129.309 95.7307L129.119 94.4525C128.98 94.4905 128.815 94.5031 128.638 94.5031C128.056 94.5031 127.841 94.2373 127.841 93.7438V90.8583H129.271L129.081 89.618H127.841V87.4539L126.335 87.6817V89.618H125.474V90.8583H126.335V93.9969C126.335 95.389 127.144 95.832 128.347 95.832C128.79 95.832 129.068 95.7813 129.309 95.7307ZM130.977 98.034C132.078 98.034 132.787 97.5911 133.306 96.123L135.647 89.618H134.115L132.749 93.921L131.357 89.5295L129.775 89.7319L131.989 95.7181L131.939 95.8952C131.736 96.5533 131.331 96.7811 130.825 96.7811C130.559 96.7811 130.344 96.7432 130.154 96.6925L130.357 97.9708C130.496 98.0087 130.648 98.034 130.977 98.034Z" fill="#69688C"/>
<path d="M124.54 31.5661C124.54 29.8541 123.708 29.0701 121.436 28.1421C119.9 27.5021 119.548 27.1661 119.548 26.4621C119.548 25.7901 120.012 25.2781 121.068 25.2781C121.932 25.2781 122.876 25.6141 123.676 26.1421L123.996 24.2221C123.196 23.8061 122.332 23.5501 121.084 23.5501C119.02 23.5501 117.516 24.6861 117.516 26.6381C117.516 28.3501 118.38 29.0541 120.524 29.9341C122.124 30.6221 122.508 30.9581 122.508 31.7741C122.508 32.6381 121.836 33.1181 120.86 33.1181C119.756 33.1181 118.604 32.6861 117.676 32.1421L117.356 34.0621C118.332 34.5421 119.484 34.8461 120.828 34.8461C122.956 34.8461 124.54 33.7261 124.54 31.5661ZM129.231 28.1581C130.159 28.1581 130.639 28.8301 130.767 30.0301H127.679C127.823 28.7821 128.463 28.1581 129.231 28.1581ZM132.623 33.9341L132.399 32.4301C131.551 33.0221 130.735 33.3901 129.743 33.3901C128.559 33.3901 127.743 32.7341 127.663 31.2301H132.623C132.623 31.1181 132.639 30.9261 132.639 30.7661C132.639 28.5741 131.599 26.8301 129.279 26.8301C127.263 26.8301 125.759 28.3501 125.759 30.8621C125.759 33.6461 127.375 34.8781 129.535 34.8781C130.783 34.8781 131.791 34.5101 132.623 33.9341ZM138.846 28.7341L138.542 26.8301C137.342 26.8941 136.574 27.6461 136.062 28.5421L135.822 26.9901H134.19V34.7181H136.11V30.2861C136.67 29.4541 137.646 28.8141 138.846 28.7341ZM146.657 26.9901H144.737L143.073 32.3661L141.377 26.8781L139.361 27.1341L142.033 34.7661H143.953L146.657 26.9901ZM150.747 28.1581C151.675 28.1581 152.155 28.8301 152.283 30.0301H149.195C149.339 28.7821 149.979 28.1581 150.747 28.1581ZM154.139 33.9341L153.915 32.4301C153.067 33.0221 152.251 33.3901 151.259 33.3901C150.075 33.3901 149.259 32.7341 149.179 31.2301H154.139C154.139 31.1181 154.155 30.9261 154.155 30.7661C154.155 28.5741 153.115 26.8301 150.795 26.8301C148.779 26.8301 147.275 28.3501 147.275 30.8621C147.275 33.6461 148.891 34.8781 151.051 34.8781C152.299 34.8781 153.307 34.5101 154.139 33.9341ZM160.362 28.7341L160.058 26.8301C158.858 26.8941 158.09 27.6461 157.578 28.5421L157.338 26.9901H155.706V34.7181H157.626V30.2861C158.186 29.4541 159.162 28.8141 160.362 28.7341ZM171.915 31.5661C171.915 29.8541 171.083 29.0701 168.811 28.1421C167.275 27.5021 166.923 27.1661 166.923 26.4621C166.923 25.7901 167.387 25.2781 168.443 25.2781C169.307 25.2781 170.251 25.6141 171.051 26.1421L171.371 24.2221C170.571 23.8061 169.707 23.5501 168.459 23.5501C166.395 23.5501 164.891 24.6861 164.891 26.6381C164.891 28.3501 165.755 29.0541 167.899 29.9341C169.499 30.6221 169.883 30.9581 169.883 31.7741C169.883 32.6381 169.211 33.1181 168.235 33.1181C167.131 33.1181 165.979 32.6861 165.051 32.1421L164.731 34.0621C165.707 34.5421 166.859 34.8461 168.203 34.8461C170.331 34.8461 171.915 33.7261 171.915 31.5661ZM176.606 28.1581C177.534 28.1581 178.014 28.8301 178.142 30.0301H175.054C175.198 28.7821 175.838 28.1581 176.606 28.1581ZM179.998 33.9341L179.774 32.4301C178.926 33.0221 178.11 33.3901 177.118 33.3901C175.934 33.3901 175.118 32.7341 175.038 31.2301H179.998C179.998 31.1181 180.014 30.9261 180.014 30.7661C180.014 28.5741 178.974 26.8301 176.654 26.8301C174.638 26.8301 173.134 28.3501 173.134 30.8621C173.134 33.6461 174.75 34.8781 176.91 34.8781C178.158 34.8781 179.166 34.5101 179.998 33.9341ZM185.725 34.7181L185.485 33.1021C185.309 33.1501 185.101 33.1661 184.877 33.1661C184.141 33.1661 183.869 32.8301 183.869 32.2061V28.5581H185.677L185.437 26.9901H183.869V24.2541L181.965 24.5421V26.9901H180.877V28.5581H181.965V32.5261C181.965 34.2861 182.989 34.8461 184.509 34.8461C185.069 34.8461 185.421 34.7821 185.725 34.7181ZM191.319 34.7181L191.079 33.1021C190.903 33.1501 190.695 33.1661 190.471 33.1661C189.735 33.1661 189.463 32.8301 189.463 32.2061V28.5581H191.271L191.031 26.9901H189.463V24.2541L187.559 24.5421V26.9901H186.471V28.5581H187.559V32.5261C187.559 34.2861 188.583 34.8461 190.103 34.8461C190.663 34.8461 191.015 34.7821 191.319 34.7181ZM194.945 24.6061C194.945 23.9501 194.433 23.4861 193.809 23.4861C193.169 23.4861 192.657 23.9501 192.657 24.6061C192.657 25.2461 193.169 25.6941 193.809 25.6941C194.433 25.6941 194.945 25.2461 194.945 24.6061ZM194.753 34.7181V26.9901H192.833V34.7181H194.753ZM203.376 34.7181V29.1501C203.376 27.7101 202.608 26.8301 201.168 26.8301C200.128 26.8301 199.312 27.3901 198.592 28.0781L198.416 26.9901H196.784V34.7181H198.704V29.5021C199.264 28.9101 199.872 28.5261 200.464 28.5261C201.168 28.5261 201.456 28.9901 201.456 29.6621V34.7181H203.376ZM209.492 29.5021C209.492 30.3501 208.98 30.9741 208.132 30.9741C207.3 30.9741 206.788 30.3661 206.788 29.5661C206.788 28.7181 207.284 28.0621 208.132 28.0621C208.948 28.0621 209.492 28.6861 209.492 29.5021ZM212.228 35.0381C212.228 33.8541 211.236 33.3581 209.652 33.1341L208.66 33.0381C207.46 32.8621 207.22 32.7981 207.22 32.5421C207.22 32.4141 207.348 32.2701 207.54 32.1261C207.732 32.1581 207.94 32.1741 208.164 32.1741C209.828 32.1741 211.252 31.1821 211.252 29.5181C211.252 29.1661 211.188 28.8141 211.044 28.5101L212.452 28.4141L212.196 26.8781L210.308 27.5501C209.748 27.0861 209.012 26.8301 208.116 26.8301C206.388 26.8301 205.012 27.8701 205.012 29.5661C205.012 30.5901 205.556 31.3901 206.468 31.8221C205.828 32.2061 205.492 32.6221 205.492 33.0541C205.492 33.3581 205.636 33.6461 205.94 33.8861C204.98 34.4301 204.484 34.9901 204.484 35.7101C204.484 36.9901 206.068 37.6301 208.164 37.6301C210.404 37.6301 212.228 36.7021 212.228 35.0381ZM208.292 36.4941C206.836 36.4941 206.148 36.0781 206.148 35.5021C206.148 35.1021 206.404 34.7341 206.964 34.3341C207.348 34.4141 207.588 34.4621 208.116 34.5261L209.156 34.6541C210.116 34.7981 210.452 35.0381 210.452 35.4541C210.452 36.0301 209.668 36.4941 208.292 36.4941ZM219.324 32.4461C219.324 30.9901 218.54 30.4461 216.54 29.9341C215.388 29.6301 215.1 29.3901 215.1 28.9741C215.1 28.5581 215.452 28.2701 216.172 28.2701C216.94 28.2701 217.852 28.5421 218.62 28.9741L218.876 27.3741C218.108 27.0381 217.18 26.8301 216.172 26.8301C214.38 26.8301 213.324 27.7741 213.324 29.1181C213.324 30.5261 214.108 31.0701 215.98 31.5501C217.212 31.8541 217.548 32.0781 217.548 32.6221C217.548 33.1341 217.1 33.4381 216.268 33.4381C215.308 33.4381 214.284 33.0701 213.452 32.5261L213.196 34.1261C213.932 34.5261 215.084 34.8781 216.204 34.8781C218.236 34.8781 219.324 33.9661 219.324 32.4461Z" fill="#69688C"/>
<path d="M84.1185 183.315C84.1185 180.067 82.1345 177.811 78.2945 177.811H74.7905V188.851H78.2945C82.0545 188.851 84.1185 186.595 84.1185 183.315ZM81.9585 183.331C81.9585 185.923 80.5665 187.107 78.2465 187.107H76.9025V179.555H78.2785C80.4865 179.555 81.9585 180.787 81.9585 183.331ZM88.0561 178.739C88.0561 178.083 87.5441 177.619 86.9201 177.619C86.2801 177.619 85.7681 178.083 85.7681 178.739C85.7681 179.379 86.2801 179.827 86.9201 179.827C87.5441 179.827 88.0561 179.379 88.0561 178.739ZM87.8641 188.851V181.123H85.9441V188.851H87.8641ZM95.6234 186.579C95.6234 185.123 94.8394 184.579 92.8394 184.067C91.6874 183.763 91.3994 183.523 91.3994 183.107C91.3994 182.691 91.7514 182.403 92.4714 182.403C93.2394 182.403 94.1514 182.675 94.9194 183.107L95.1754 181.507C94.4074 181.171 93.4794 180.963 92.4714 180.963C90.6794 180.963 89.6234 181.907 89.6234 183.251C89.6234 184.659 90.4074 185.203 92.2794 185.683C93.5114 185.987 93.8474 186.211 93.8474 186.755C93.8474 187.267 93.3994 187.571 92.5674 187.571C91.6074 187.571 90.5834 187.203 89.7514 186.659L89.4954 188.259C90.2314 188.659 91.3834 189.011 92.5034 189.011C94.5354 189.011 95.6234 188.099 95.6234 186.579ZM102.969 188.259L102.713 186.611C102.009 187.155 101.353 187.347 100.681 187.347C99.5614 187.347 98.6814 186.579 98.6814 184.979C98.6814 183.443 99.4814 182.627 100.617 182.627C101.385 182.627 101.993 182.883 102.617 183.347L102.889 181.619C102.329 181.267 101.529 180.963 100.521 180.963C98.4254 180.963 96.7454 182.339 96.7454 185.027C96.7454 187.555 98.2654 188.995 100.409 188.995C101.433 188.995 102.233 188.755 102.969 188.259ZM111.244 184.979C111.244 182.467 109.708 180.963 107.596 180.963C105.5 180.963 103.964 182.483 103.964 184.995C103.964 187.507 105.484 189.011 107.58 189.011C109.692 189.011 111.244 187.491 111.244 184.979ZM109.372 184.995C109.372 186.435 108.764 187.443 107.58 187.443C106.46 187.443 105.836 186.403 105.836 184.979C105.836 183.555 106.444 182.531 107.58 182.531C108.732 182.531 109.372 183.571 109.372 184.995ZM119.175 181.123H117.255L115.591 186.499L113.895 181.011L111.879 181.267L114.551 188.899H116.471L119.175 181.123ZM123.264 182.291C124.192 182.291 124.672 182.963 124.8 184.163H121.712C121.856 182.915 122.496 182.291 123.264 182.291ZM126.656 188.067L126.432 186.563C125.584 187.155 124.768 187.523 123.776 187.523C122.592 187.523 121.776 186.867 121.696 185.363H126.656C126.656 185.251 126.672 185.059 126.672 184.899C126.672 182.707 125.632 180.963 123.312 180.963C121.296 180.963 119.792 182.483 119.792 184.995C119.792 187.779 121.408 189.011 123.568 189.011C124.816 189.011 125.824 188.643 126.656 188.067ZM132.879 182.867L132.575 180.963C131.375 181.027 130.607 181.779 130.095 182.675L129.855 181.123H128.223V188.851H130.143V184.419C130.703 183.587 131.679 182.947 132.879 182.867ZM134.914 191.763C136.306 191.763 137.202 191.203 137.858 189.347L140.818 181.123H138.882L137.154 186.563L135.394 181.011L133.394 181.267L136.194 188.835L136.13 189.059C135.874 189.891 135.362 190.179 134.722 190.179C134.386 190.179 134.114 190.131 133.874 190.067L134.13 191.683C134.306 191.731 134.498 191.763 134.914 191.763Z" fill="#69688C"/>
<g filter="url(#filter0_d)">
<rect x="40" y="110" width="191" height="46" rx="6" fill="#7289DA"/>
<path d="M66.1779 140.495H68.8179V135.415H69.9979C73.1579 135.415 75.2779 133.915 75.2779 130.935C75.2779 128.155 73.3779 126.695 70.2179 126.695H66.1779V140.495ZM72.6779 130.995C72.6779 132.575 71.6779 133.275 69.9779 133.275H68.8179V128.815H70.0779C71.7779 128.815 72.6779 129.555 72.6779 130.995ZM81.9015 137.835C81.2415 138.475 80.4615 138.875 79.6415 138.875C78.9015 138.875 78.4615 138.455 78.4615 137.755C78.4615 136.835 79.1215 136.015 81.9015 135.675V137.835ZM84.3015 140.495V133.875C84.3015 131.555 83.0615 130.635 80.5615 130.635C79.0215 130.635 77.8415 130.975 76.7215 131.415L77.0215 133.335C78.0615 132.875 79.1215 132.555 80.2415 132.555C81.3015 132.555 81.9015 132.955 81.9015 133.995V134.275C78.0015 134.655 76.0815 135.675 76.0815 138.015C76.0815 139.695 77.1815 140.695 78.8215 140.695C80.2615 140.695 81.2615 140.055 82.0415 139.235L82.2415 140.495H84.3015ZM92.5001 133.015L92.1201 130.635C90.6201 130.715 89.6601 131.655 89.0201 132.775L88.7201 130.835H86.6801V140.495H89.0801V134.955C89.7801 133.915 91.0001 133.115 92.5001 133.015ZM99.3996 140.495L99.0996 138.475C98.8796 138.535 98.6196 138.555 98.3396 138.555C97.4196 138.555 97.0796 138.135 97.0796 137.355V132.795H99.3396L99.0396 130.835H97.0796V127.415L94.6996 127.775V130.835H93.3396V132.795H94.6996V137.755C94.6996 139.955 95.9796 140.655 97.8796 140.655C98.5796 140.655 99.0196 140.575 99.3996 140.495ZM109.432 140.495V133.535C109.432 131.735 108.472 130.635 106.672 130.635C105.372 130.635 104.352 131.335 103.452 132.195L103.232 130.835H101.192V140.495H103.592V133.975C104.292 133.235 105.052 132.755 105.792 132.755C106.672 132.755 107.032 133.335 107.032 134.175V140.495H109.432ZM115.676 132.295C116.836 132.295 117.436 133.135 117.596 134.635H113.736C113.916 133.075 114.716 132.295 115.676 132.295ZM119.916 139.515L119.636 137.635C118.576 138.375 117.556 138.835 116.316 138.835C114.836 138.835 113.816 138.015 113.716 136.135H119.916C119.916 135.995 119.936 135.755 119.936 135.555C119.936 132.815 118.636 130.635 115.736 130.635C113.216 130.635 111.336 132.535 111.336 135.675C111.336 139.155 113.356 140.695 116.056 140.695C117.616 140.695 118.876 140.235 119.916 139.515ZM127.695 133.015L127.315 130.635C125.815 130.715 124.855 131.655 124.215 132.775L123.915 130.835H121.875V140.495H124.275V134.955C124.975 133.915 126.195 133.115 127.695 133.015ZM133.736 140.495H136.376V135.415H137.556C140.716 135.415 142.836 133.915 142.836 130.935C142.836 128.155 140.936 126.695 137.776 126.695H133.736V140.495ZM140.236 130.995C140.236 132.575 139.236 133.275 137.536 133.275H136.376V128.815H137.636C139.336 128.815 140.236 129.555 140.236 130.995ZM150.313 133.015L149.933 130.635C148.433 130.715 147.473 131.655 146.833 132.775L146.533 130.835H144.493V140.495H146.893V134.955C147.593 133.915 148.813 133.115 150.313 133.015ZM160.182 135.655C160.182 132.515 158.262 130.635 155.622 130.635C153.002 130.635 151.082 132.535 151.082 135.675C151.082 138.815 152.982 140.695 155.602 140.695C158.242 140.695 160.182 138.795 160.182 135.655ZM157.842 135.675C157.842 137.475 157.082 138.735 155.602 138.735C154.202 138.735 153.422 137.435 153.422 135.655C153.422 133.875 154.182 132.595 155.602 132.595C157.042 132.595 157.842 133.895 157.842 135.675ZM167.369 133.975C167.369 135.035 166.729 135.815 165.669 135.815C164.629 135.815 163.989 135.055 163.989 134.055C163.989 132.995 164.609 132.175 165.669 132.175C166.689 132.175 167.369 132.955 167.369 133.975ZM170.789 140.895C170.789 139.415 169.549 138.795 167.569 138.515L166.329 138.395C164.829 138.175 164.529 138.095 164.529 137.775C164.529 137.615 164.689 137.435 164.929 137.255C165.169 137.295 165.429 137.315 165.709 137.315C167.789 137.315 169.569 136.075 169.569 133.995C169.569 133.555 169.489 133.115 169.309 132.735L171.069 132.615L170.749 130.695L168.389 131.535C167.689 130.955 166.769 130.635 165.649 130.635C163.489 130.635 161.769 131.935 161.769 134.055C161.769 135.335 162.449 136.335 163.589 136.875C162.789 137.355 162.369 137.875 162.369 138.415C162.369 138.795 162.549 139.155 162.929 139.455C161.729 140.135 161.109 140.835 161.109 141.735C161.109 143.335 163.089 144.135 165.709 144.135C168.509 144.135 170.789 142.975 170.789 140.895ZM165.869 142.715C164.049 142.715 163.189 142.195 163.189 141.475C163.189 140.975 163.509 140.515 164.209 140.015C164.689 140.115 164.989 140.175 165.649 140.255L166.949 140.415C168.149 140.595 168.569 140.895 168.569 141.415C168.569 142.135 167.589 142.715 165.869 142.715ZM178.32 133.015L177.94 130.635C176.44 130.715 175.48 131.655 174.84 132.775L174.54 130.835H172.5V140.495H174.9V134.955C175.6 133.915 176.82 133.115 178.32 133.015ZM184.773 137.835C184.113 138.475 183.333 138.875 182.513 138.875C181.773 138.875 181.333 138.455 181.333 137.755C181.333 136.835 181.993 136.015 184.773 135.675V137.835ZM187.173 140.495V133.875C187.173 131.555 185.933 130.635 183.433 130.635C181.893 130.635 180.713 130.975 179.593 131.415L179.893 133.335C180.933 132.875 181.993 132.555 183.113 132.555C184.173 132.555 184.773 132.955 184.773 133.995V134.275C180.873 134.655 178.953 135.675 178.953 138.015C178.953 139.695 180.053 140.695 181.693 140.695C183.133 140.695 184.133 140.055 184.913 139.235L185.113 140.495H187.173ZM203.411 140.495V133.535C203.411 131.735 202.511 130.635 200.691 130.635C199.391 130.635 198.331 131.335 197.471 132.195C197.111 131.255 196.371 130.635 194.991 130.635C193.691 130.635 192.711 131.335 191.811 132.195L191.591 130.835H189.551V140.495H191.951V133.955C192.651 133.235 193.351 132.755 194.091 132.755C194.971 132.755 195.291 133.335 195.291 134.175V140.495H197.691V133.955C198.391 133.235 199.091 132.755 199.831 132.755C200.711 132.755 201.011 133.335 201.011 134.175V140.495H203.411Z" fill="white"/>
</g>
<rect x="304" y="182" width="202.49" height="37.9669" rx="5.06225" fill="#7289DA"/>
<path d="M334.192 207.718L336.548 207.292L332.065 195.315H329.567L324.978 207.594H327.335L328.398 204.493H333.04L334.192 207.718ZM330.719 197.849L332.367 202.579H329.053L330.719 197.849ZM343.712 203.2C343.712 205.078 342.879 205.981 341.78 205.981C341.054 205.981 340.646 205.857 340.133 205.609V201.942C340.7 201.215 341.302 200.737 342.064 200.737C343.021 200.737 343.712 201.552 343.712 203.2ZM345.855 203.076C345.855 200.205 344.42 198.859 342.631 198.859C341.444 198.859 340.611 199.514 340.009 200.205L339.814 199.036H338.006V210.889L340.133 210.57V207.346C340.646 207.54 341.302 207.682 342.117 207.682C344.084 207.682 345.855 206.265 345.855 203.076ZM353.297 203.2C353.297 205.078 352.465 205.981 351.366 205.981C350.64 205.981 350.232 205.857 349.718 205.609V201.942C350.285 201.215 350.888 200.737 351.65 200.737C352.606 200.737 353.297 201.552 353.297 203.2ZM355.441 203.076C355.441 200.205 354.006 198.859 352.216 198.859C351.029 198.859 350.197 199.514 349.594 200.205L349.399 199.036H347.592V210.889L349.718 210.57V207.346C350.232 207.54 350.888 207.682 351.703 207.682C353.669 207.682 355.441 206.265 355.441 203.076ZM359.392 207.594V194.801L357.266 195.138V207.594H359.392ZM362.545 210.818C364.087 210.818 365.079 210.198 365.806 208.143L369.083 199.036H366.939L365.026 205.06L363.077 198.912L360.862 199.195L363.963 207.576L363.892 207.824C363.609 208.745 363.042 209.064 362.333 209.064C361.961 209.064 361.66 209.011 361.394 208.94L361.677 210.73C361.872 210.783 362.085 210.818 362.545 210.818ZM378.827 196.715L378.544 194.961C378.296 194.925 377.995 194.908 377.676 194.908C375.922 194.908 374.717 195.599 374.717 197.494V199.036H373.477V200.772H374.717V207.594H376.825V200.772H378.721L378.455 199.036H376.825V197.707C376.825 196.963 377.215 196.644 377.942 196.644C378.296 196.644 378.615 196.679 378.827 196.715ZM387.497 203.306C387.497 200.524 385.797 198.859 383.458 198.859C381.137 198.859 379.436 200.542 379.436 203.324C379.436 206.105 381.119 207.771 383.44 207.771C385.779 207.771 387.497 206.088 387.497 203.306ZM385.424 203.324C385.424 204.918 384.751 206.034 383.44 206.034C382.2 206.034 381.509 204.883 381.509 203.306C381.509 201.729 382.182 200.595 383.44 200.595C384.716 200.595 385.424 201.747 385.424 203.324ZM394.378 200.967L394.041 198.859C392.713 198.93 391.862 199.762 391.295 200.755L391.029 199.036H389.222V207.594H391.348V202.686C391.968 201.764 393.049 201.056 394.378 200.967ZM399.73 207.594H402.069V203.093H403.114C405.913 203.093 407.792 201.764 407.792 199.124C407.792 196.662 406.108 195.368 403.309 195.368H399.73V207.594ZM405.488 199.178C405.488 200.577 404.602 201.197 403.096 201.197H402.069V197.246H403.185C404.691 197.246 405.488 197.902 405.488 199.178ZM413.659 205.237C413.075 205.804 412.384 206.158 411.657 206.158C411.002 206.158 410.612 205.786 410.612 205.166C410.612 204.351 411.197 203.625 413.659 203.324V205.237ZM415.785 207.594V201.729C415.785 199.674 414.687 198.859 412.472 198.859C411.108 198.859 410.063 199.16 409.07 199.55L409.336 201.251C410.257 200.843 411.197 200.56 412.189 200.56C413.128 200.56 413.659 200.914 413.659 201.835V202.083C410.204 202.42 408.503 203.324 408.503 205.397C408.503 206.885 409.478 207.771 410.931 207.771C412.206 207.771 413.092 207.204 413.783 206.477L413.961 207.594H415.785ZM423.049 200.967L422.712 198.859C421.383 198.93 420.533 199.762 419.966 200.755L419.7 199.036H417.893V207.594H420.019V202.686C420.639 201.764 421.72 201.056 423.049 200.967ZM429.161 207.594L428.895 205.804C428.7 205.857 428.47 205.875 428.222 205.875C427.407 205.875 427.106 205.503 427.106 204.812V200.772H429.108L428.842 199.036H427.106V196.006L424.997 196.325V199.036H423.792V200.772H424.997V205.166C424.997 207.115 426.131 207.735 427.814 207.735C428.434 207.735 428.824 207.664 429.161 207.594ZM438.048 207.594V201.428C438.048 199.833 437.198 198.859 435.603 198.859C434.452 198.859 433.548 199.479 432.751 200.241L432.556 199.036H430.748V207.594H432.875V201.818C433.495 201.162 434.168 200.737 434.824 200.737C435.603 200.737 435.922 201.251 435.922 201.995V207.594H438.048ZM443.58 200.329C444.608 200.329 445.139 201.073 445.281 202.402H441.862C442.021 201.02 442.73 200.329 443.58 200.329ZM447.336 206.725L447.088 205.06C446.149 205.716 445.246 206.123 444.147 206.123C442.836 206.123 441.932 205.397 441.844 203.731H447.336C447.336 203.607 447.354 203.394 447.354 203.217C447.354 200.79 446.202 198.859 443.633 198.859C441.401 198.859 439.735 200.542 439.735 203.324C439.735 206.407 441.525 207.771 443.917 207.771C445.299 207.771 446.415 207.363 447.336 206.725ZM454.228 200.967L453.891 198.859C452.562 198.93 451.712 199.762 451.145 200.755L450.879 199.036H449.072V207.594H451.198V202.686C451.818 201.764 452.899 201.056 454.228 200.967ZM461.8 205.078C461.8 203.465 460.931 202.863 458.717 202.296C457.441 201.959 457.122 201.694 457.122 201.233C457.122 200.772 457.512 200.453 458.309 200.453C459.16 200.453 460.17 200.755 461.02 201.233L461.304 199.461C460.453 199.089 459.425 198.859 458.309 198.859C456.325 198.859 455.155 199.904 455.155 201.392C455.155 202.952 456.024 203.554 458.097 204.085C459.461 204.422 459.833 204.67 459.833 205.273C459.833 205.84 459.337 206.176 458.416 206.176C457.352 206.176 456.218 205.769 455.297 205.166L455.014 206.938C455.829 207.381 457.104 207.771 458.345 207.771C460.595 207.771 461.8 206.761 461.8 205.078ZM470.785 207.594V201.428C470.785 199.833 469.934 198.859 468.34 198.859C467.206 198.859 466.32 199.461 465.611 200.117V194.801L463.485 195.138V207.594H465.611V201.818C466.231 201.162 466.905 200.737 467.56 200.737C468.34 200.737 468.659 201.251 468.659 201.995V207.594H470.785ZM475.342 196.396C475.342 195.669 474.775 195.156 474.084 195.156C473.376 195.156 472.809 195.669 472.809 196.396C472.809 197.105 473.376 197.601 474.084 197.601C474.775 197.601 475.342 197.105 475.342 196.396ZM475.13 207.594V199.036H473.004V207.594H475.13ZM483.084 203.2C483.084 205.078 482.251 205.981 481.153 205.981C480.427 205.981 480.019 205.857 479.505 205.609V201.942C480.072 201.215 480.675 200.737 481.436 200.737C482.393 200.737 483.084 201.552 483.084 203.2ZM485.228 203.076C485.228 200.205 483.793 198.859 482.003 198.859C480.816 198.859 479.984 199.514 479.381 200.205L479.186 199.036H477.379V210.889L479.505 210.57V207.346C480.019 207.54 480.675 207.682 481.49 207.682C483.456 207.682 485.228 206.265 485.228 203.076Z" fill="white"/>
<rect x="292" y="80" width="70" height="70" rx="8" fill="#1C1B29"/>
<path d="M321.814 110.982C319.539 113.674 319.656 117.591 321.931 120.153L319.034 123.579L320.561 124.87L323.463 121.437C324.569 122.127 325.846 122.513 327.161 122.513C329.231 122.513 331.183 121.607 332.516 120.027C335.069 117.01 335.771 108.945 336 105C332.765 105.876 324.032 108.356 321.814 110.982ZM323.935 119.331C321.826 117.548 321.56 114.382 323.342 112.272C324.592 110.793 329.904 108.845 333.764 107.698L323.935 119.331Z" fill="#7289DA"/>
<rect x="370" y="80" width="70" height="70" rx="8" fill="#1C1B29"/>
<path d="M405.552 123.069V127L411.138 121.345L408.379 120.241L405.552 123.069Z" fill="#7289DA"/>
<path d="M401.759 114.379L399 113.207V120.724L401.759 119.621V114.379Z" fill="#7289DA"/>
<path d="M411.138 112.586L405.552 107V110.862L408.379 113.69L411.138 112.586Z" fill="#7289DA"/>
<path d="M404.862 110.862V107L399.276 112.586L402.034 113.69L404.862 110.862Z" fill="#7289DA"/>
<path d="M399.276 121.345L404.862 127V123.069L402.034 120.241L399.276 121.345Z" fill="#7289DA"/>
<path d="M408.655 119.621L411.414 120.724V113.207L408.655 114.379V119.621Z" fill="#7289DA"/>
<path d="M407.966 114.241L405.207 111.483L402.448 114.241V119.69L405.207 122.448L407.966 119.69V114.241Z" fill="#7289DA"/>
<rect x="448" y="80" width="70" height="70" rx="8" fill="#1C1B29"/>
<path d="M488.539 111.78L485.534 113.734C485.233 114.034 484.783 113.884 484.632 113.734C484.332 113.433 483.881 113.283 483.58 113.133C482.829 112.982 482.078 113.133 481.477 113.433L480.425 114.184L474.866 117.791C473.663 118.542 472.161 118.241 471.41 117.039C470.658 115.837 470.959 114.335 472.161 113.583L478.622 109.226C480.425 108.174 482.529 107.723 484.482 108.174C486.135 108.475 487.637 109.376 488.689 110.728C488.99 111.029 488.99 111.63 488.539 111.78Z" fill="#7289DA"/>
<path d="M495 114.785C495 115.687 494.549 116.438 493.798 116.889L487.187 121.246C485.985 121.998 484.482 122.449 483.13 122.449C482.529 122.449 481.928 122.449 481.477 122.298C479.824 121.998 478.472 120.946 477.27 119.744C476.969 119.443 476.969 118.842 477.42 118.692L480.425 116.739C480.726 116.438 481.176 116.589 481.327 116.739C481.627 117.039 481.928 117.19 482.378 117.34C483.13 117.49 483.881 117.34 484.482 117.039L485.985 116.138L490.492 113.133L491.093 112.682C492.295 111.931 493.798 112.231 494.549 113.433C494.85 113.884 495 114.335 495 114.785Z" fill="#7289DA"/>
<path fill-rule="evenodd" clip-rule="evenodd" d="M207.656 187.657C208.107 188.063 208.418 188.355 209.38 189.269C210.322 190.164 210.778 190.586 211.194 190.94C211.368 191.087 211.516 191.478 211.575 192.06C211.623 192.538 211.606 193.072 211.548 193.587C211.528 193.765 211.508 193.893 211.497 193.954C211.371 194.641 211.894 195.275 212.592 195.282C213.22 195.288 213.704 195.296 214.984 195.319C215.305 195.324 215.305 195.324 215.626 195.33C219.107 195.39 220.885 195.373 222.161 195.213C223.525 195.041 224.929 193.394 226.144 191.328C227.172 193.156 228.599 194.942 230.041 195.174C230.498 195.247 231.052 195.27 231.694 195.255C232.173 195.244 232.679 195.213 233.19 195.167C233.576 195.133 233.883 195.098 234.066 195.074C234.744 194.986 235.187 194.32 235.006 193.661C234.967 193.518 234.904 193.257 234.841 192.928C234.767 192.547 234.714 192.175 234.69 191.836C234.675 191.621 234.672 191.426 234.682 191.258C234.699 190.964 234.704 190.8 234.712 190.42C234.715 190.279 234.715 190.279 234.719 190.155C234.735 189.751 234.79 189.367 234.965 188.529C235.041 188.165 235.407 187.469 235.984 186.608C236.156 186.352 236.344 186.084 236.545 185.807C236.927 185.283 237.338 184.753 237.748 184.246C237.995 183.942 238.185 183.715 238.291 183.592C239.179 182.319 240.127 180.234 240.475 179.016C240.809 177.845 241.077 175.688 241.241 173.568C241.331 172.365 241.364 171.395 241.364 169.875C241.365 169.608 241.365 169.608 241.365 169.388C241.366 169.027 241.366 168.89 241.365 168.722C241.362 168.261 241.348 167.804 241.304 166.64C241.208 164.199 239.87 162.621 237.899 162.316C236.222 162.057 234.181 163.45 234.181 163.45C234.181 163.45 233.727 161.882 233.42 161.397C232.921 160.619 231.637 159.628 230.656 159.435C229.646 159.239 228.45 159.26 227.351 159.455C226.388 159.627 225.43 160.486 224.875 161.413C224.478 162.074 224.851 161.378 224.455 160.694C223.905 159.752 222.627 158.908 221.409 158.659C220.377 158.446 219.195 158.527 218.115 158.848C216.726 159.263 216.505 160.32 216.449 160.018C216.265 159.003 216.248 159.07 216.133 158.346C215.705 155.66 215.226 153.802 214.5 152.18C214.542 152.273 214.235 151.574 214.123 151.332C213.929 150.915 213.735 150.536 213.523 150.173C212.867 149.052 212.116 148.213 211.173 147.736C209.536 146.907 207.083 147.31 205.92 148.668C204.765 150.017 204.573 152.272 204.864 155.063C204.975 156.147 205.364 158.125 205.717 159.588C205.842 160.095 205.951 160.558 206.152 161.413C206.186 161.559 206.186 161.559 206.221 161.704C206.376 162.351 206.512 162.884 206.675 163.468C206.658 163.407 206.966 164.5 207.031 164.742C207.053 164.823 207.053 164.823 207.075 164.904C207.197 165.365 207.317 165.863 207.504 166.693C207.606 167.149 207.706 167.637 207.804 168.154C208.071 169.564 208.072 169.27 207.815 168.97C207.638 168.762 207.471 168.573 207.31 168.399C207.011 168.076 206.736 167.809 206.475 167.596C204.572 166.039 203.405 165.351 201.804 165.2C199.178 164.947 196.686 166.802 196.311 169.306C196.08 170.841 196.155 171.548 196.865 172.904C197.256 173.637 197.917 174.523 199.15 176.046C199.225 176.14 199.225 176.14 199.301 176.233C200.815 178.098 200.98 178.306 201.34 178.827C202.313 180.239 204.682 184.293 205.112 184.838L207.656 187.657Z" fill="black"/>
<path fill-rule="evenodd" clip-rule="evenodd" d="M201.048 174.815C200.973 174.723 200.973 174.723 200.899 174.631C199.767 173.233 199.146 172.401 198.854 171.853C198.396 170.978 198.371 170.74 198.536 169.64C198.73 168.342 200.131 167.299 201.591 167.44C202.601 167.535 203.483 168.055 205.051 169.338C205.221 169.477 205.426 169.676 205.66 169.929C205.798 170.078 205.945 170.244 206.104 170.43C206.342 170.709 207.145 171.692 207.027 171.549C207.201 171.759 207.326 171.921 207.468 172.12C207.751 172.523 207.909 172.747 208.125 173.034C208.024 172.899 208.769 173.929 208.926 174.08C209.762 174.877 210.973 174.206 210.897 173.142C210.884 172.965 210.842 172.773 210.755 172.438C210.411 169.981 210.29 169.192 210.015 167.736C209.913 167.195 209.808 166.683 209.699 166.2C209.506 165.343 209.38 164.819 209.249 164.327C209.226 164.24 209.226 164.24 209.203 164.153C209.134 163.899 208.821 162.789 208.842 162.864C208.688 162.31 208.558 161.802 208.409 161.18C208.375 161.038 208.375 161.038 208.341 160.895C208.142 160.044 208.03 159.57 207.903 159.055C207.573 157.688 207.2 155.793 207.102 154.832C206.875 152.659 207.031 150.829 207.629 150.131C208.096 149.587 209.418 149.369 210.157 149.743C210.641 149.988 211.123 150.527 211.58 151.309C211.753 151.604 211.916 151.922 212.082 152.279C212.182 152.496 212.48 153.175 212.447 153.1C213.078 154.509 213.511 156.192 213.911 158.7C214.029 159.443 214.175 160.284 214.362 161.314C214.418 161.62 214.418 161.62 214.474 161.924C215.378 166.83 215.312 166.458 215.325 166.849C215.373 168.276 217.479 168.31 217.572 166.885C217.602 166.433 217.591 166.029 217.539 164.87C217.532 164.706 217.532 164.706 217.524 164.543C217.479 163.475 217.481 162.861 217.545 162.512C217.66 161.875 218.231 161.162 218.758 161.005C219.497 160.785 220.307 160.729 220.956 160.863C221.577 160.99 222.302 161.469 222.51 161.825C222.76 162.257 222.975 162.915 223.14 163.731C223.273 164.39 223.364 165.096 223.429 165.85C223.449 166.085 223.462 166.266 223.482 166.566C223.49 166.691 223.49 166.691 223.499 166.795C223.504 166.847 223.504 166.847 223.515 166.929C223.524 166.986 223.524 166.986 223.567 167.132C223.589 167.545 223.589 167.545 225.25 167.699C225.746 167.099 225.746 167.099 225.732 166.994C225.813 166.639 225.863 166.243 225.934 165.5C225.979 165.016 226.002 164.779 226.029 164.532C226.139 163.512 226.279 162.864 226.45 162.579C226.662 162.224 227.41 161.73 227.745 161.67C228.586 161.521 229.511 161.505 230.224 161.643C230.547 161.707 231.336 162.316 231.522 162.607C231.906 163.211 232.278 165.161 232.488 167.095C232.455 167.222 232.455 167.222 232.97 167.958C234.741 167.756 234.741 167.756 234.692 167.436C234.738 167.322 234.775 167.191 234.828 166.986C234.955 166.507 235.039 166.229 235.164 165.917C235.25 165.701 235.341 165.517 235.435 165.37C235.797 164.8 236.734 164.413 237.556 164.54C238.438 164.676 239.001 165.34 239.055 166.727C239.099 167.868 239.112 168.307 239.115 168.738C239.116 168.896 239.116 169.024 239.115 169.383C239.115 169.605 239.115 169.605 239.115 169.875C239.115 171.342 239.083 172.255 238.998 173.397C238.846 175.357 238.589 177.425 238.312 178.398C238.028 179.39 237.182 181.251 236.512 182.219C236.465 182.264 236.261 182.508 236 182.829C235.567 183.365 235.133 183.924 234.726 184.483C234.508 184.782 234.304 185.074 234.115 185.356C233.384 186.447 232.915 187.338 232.763 188.069C232.564 189.018 232.493 189.522 232.471 190.067C232.466 190.222 232.466 190.222 232.463 190.372C232.455 190.726 232.45 190.869 232.435 191.128C232.42 191.4 232.424 191.69 232.446 191.995C232.477 192.433 232.446 193.032 232.446 193.032C232.446 193.032 232.066 192.996 231.642 193.006C231.125 193.018 230.694 193 230.397 192.953C229.968 192.884 228.809 191.433 228.216 190.304C227.309 188.574 225.107 188.658 224.205 190.185C223.391 191.571 222.226 192.937 221.88 192.981C220.756 193.122 219.016 193.138 215.665 193.08C215.345 193.075 215.345 193.075 215.024 193.069C213.738 193.046 213.787 193.263 213.814 193.032C213.889 192.371 213.88 192.495 213.814 191.834C213.702 190.726 213.36 189.822 212.647 189.222C212.279 188.909 211.838 188.5 210.952 187.659C209.941 186.698 209.624 186.401 209.233 186.058L206.829 183.386C206.565 183.048 204.249 179.084 203.192 177.549C202.781 176.954 202.627 176.76 201.048 174.815ZM229.574 174.826V185.203C229.574 186.703 231.824 186.703 231.824 185.203V174.826C231.824 173.326 229.574 173.326 229.574 174.826ZM223.479 174.825L223.527 185.244C223.534 186.744 225.784 186.733 225.777 185.233L225.729 174.814C225.722 173.314 223.473 173.325 223.479 174.825ZM219.852 185.185L219.789 174.907C219.78 173.407 217.53 173.421 217.539 174.921L217.602 185.199C217.611 186.699 219.861 186.685 219.852 185.185Z" fill="white"/>
<defs>
<filter id="filter0_d" x="19.751" y="99.8755" width="231.498" height="86.498" filterUnits="userSpaceOnUse" color-interpolation-filters="sRGB">
<feFlood flood-opacity="0" result="BackgroundImageFix"/>
<feColorMatrix in="SourceAlpha" type="matrix" values="0 0 0 0 0 0 0 0 0 0 0 0 0 0 0 0 0 0 127 0"/>
<feOffset dy="10.1245"/>
<feGaussianBlur stdDeviation="10.1245"/>
<feColorMatrix type="matrix" values="0 0 0 0 0 0 0 0 0 0 0 0 0 0 0 0 0 0 0.2 0"/>
<feBlend mode="normal" in2="BackgroundImageFix" result="effect1_dropShadow"/>
<feBlend mode="normal" in="SourceGraphic" in2="effect1_dropShadow" result="shape"/>
</filter>
</defs>
</svg>
